# xmcd
#
# Track frame offsets:
#	150
#	30460
#	51671
#	73399
#	96614
#	128384
#	137112
#	184493
#	205724
#	226600
#	248984
#	272473
#
# Disc length: 4176 seconds
#
# Revision: 2
# Processed by: cddbd v1.5.1PL2 Copyright (c) Steve Scherf et al.
# Submitted via: audiograbber 1.83.01
#
DISCID=b1104e0c
DTITLE=Keven Valentin - Moutia Au Gou Moderne - Music For The Body And Soul
DYEAR=1900
DGENRE=Seychelles
TTITLE0=Lalit Pour Demen
TTITLE1=Village Port Glaud
TTITLE2=Zil Mon Bourzwa
TTITLE3=Dans Lanmizik Sokwe (ext. mix)
TTITLE4=Mwan Ek Mon Djembe
TTITLE5=Reflexyon
TTITLE6=Lambyans Lontan
TTITLE7=Mesaz En Mandyan
TTITLE8=Mesaz
TTITLE9=Kart Y Toultan Deryer
TTITLE10=Perdi Konfians (iinspiration of Ton Pa)
TTITLE11=Pa Les Sante
EXTD=
EXTT0=
EXTT1=
EXTT2=
EXTT3=
EXTT4=
EXTT5=
EXTT6=
EXTT7=
EXTT8=
EXTT9=
EXTT10=
EXTT11=
PLAYORDER=
